<svg width="260" height="89" fill="none" xmlns="http://www.w3.org/2000/svg"><path d="M221.452 0 28.889 51.428l9.63 35.82 192.563-51.427L221.452 0Z" fill="#E6C37D"/><path d="M14.844 44.343a3.54 3.54 0 0 0-.284-1.414 3.22 3.22 0 0 0-.756-1.193 3.602 3.602 0 0 0-1.198-.785 3.337 3.337 0 0 0-1.45-.315c-.504 0-.976.095-1.418.283-.44.189-.83.45-1.166.785a4.372 4.372 0 0 0-.788 1.194 3.54 3.54 0 0 0-.283 1.413c0 .503.094.974.283 1.414.19.44.452.827.788 1.162.336.314.725.576 1.166.786.463.188.946.282 1.45.282s.977-.094 1.418-.282c.441-.189.82-.45 1.135-.786.336-.335.599-.722.788-1.162.21-.44.315-.9.315-1.382ZM7.658 60.394H1.954V36.24h5.704v1.79c1.219-1.529 2.879-2.293 4.98-2.293 1.155 0 2.227.23 3.214.691a7.937 7.937 0 0 1 2.616 1.822 8.126 8.126 0 0 1 1.702 2.733 8.94 8.94 0 0 1 .63 3.361c0 1.194-.21 2.303-.63 3.33a8.2 8.2 0 0 1-1.702 2.701 7.68 7.68 0 0 1-2.553 1.822c-.987.44-2.059.66-3.214.66-2.017 0-3.698-.692-5.043-2.074v9.612Zm21.783-16.177c0 .545.094 1.047.284 1.508.21.44.472.827.787 1.162.337.335.725.597 1.166.786.463.188.946.282 1.45.282s.977-.094 1.418-.282a3.27 3.27 0 0 0 1.166-.786c.336-.335.6-.722.788-1.162.21-.46.315-.953.315-1.476 0-.503-.105-.974-.315-1.414a3.588 3.588 0 0 0-.788-1.194 3.27 3.27 0 0 0-1.166-.785 3.573 3.573 0 0 0-1.418-.282c-.504 0-.987.094-1.45.282a3.69 3.69 0 0 0-1.166.785 4.538 4.538 0 0 0-.788 1.163c-.189.44-.283.91-.283 1.413Zm-6.02-.063c0-1.193.242-2.303.725-3.33a8.009 8.009 0 0 1 2.017-2.7c.862-.775 1.88-1.383 3.057-1.823 1.198-.44 2.5-.66 3.908-.66 1.387 0 2.668.22 3.845.66 1.197.42 2.227 1.016 3.088 1.791a7.75 7.75 0 0 1 2.049 2.733c.483 1.047.725 2.21.725 3.486 0 1.278-.252 2.45-.757 3.519a8.34 8.34 0 0 1-2.017 2.733c-.861.753-1.901 1.34-3.12 1.758-1.197.42-2.5.629-3.907.629-1.387 0-2.669-.21-3.845-.629-1.177-.418-2.196-1.015-3.057-1.79a8.46 8.46 0 0 1-1.986-2.764c-.483-1.09-.725-2.293-.725-3.613ZM49.7 36.24l3.876 8.48 4.034-8.48h3.593l4.034 8.732 4.065-8.732h6.334l-8.445 16.114h-3.814l-4.034-8.827-3.845 8.827h-3.876l-8.288-16.114H49.7Zm38.951 5.717c-.189-.796-.577-1.435-1.166-1.917-.588-.481-1.302-.722-2.143-.722-.882 0-1.607.23-2.174.691-.546.46-.893 1.11-1.04 1.948h6.523Zm-6.68 3.298c0 2.45 1.155 3.675 3.466 3.675 1.24 0 2.175-.503 2.805-1.508h5.515c-1.114 3.686-3.897 5.529-8.352 5.529-1.365 0-2.615-.2-3.75-.597-1.134-.419-2.111-1.005-2.93-1.76a7.873 7.873 0 0 1-1.86-2.7c-.441-1.048-.662-2.22-.662-3.519 0-1.34.21-2.544.63-3.612.42-1.089 1.02-2.01 1.797-2.764.777-.754 1.712-1.33 2.805-1.728 1.113-.419 2.363-.628 3.75-.628 1.365 0 2.595.21 3.687.628 1.093.398 2.017.984 2.773 1.76.757.774 1.335 1.727 1.734 2.858.399 1.11.599 2.366.599 3.77v.596H81.97Zm15.267-9.015h5.705v2.638c.609-.963 1.355-1.696 2.237-2.199.883-.523 1.912-.785 3.089-.785h.472c.189 0 .4.021.631.063v5.434a5.438 5.438 0 0 0-2.459-.565c-1.323 0-2.321.398-2.993 1.194-.652.774-.977 1.916-.977 3.423v6.911h-5.705V36.239Zm25.36 0h5.704v1.979c1.555-1.487 3.299-2.23 5.232-2.23 2.395 0 4.223 1.005 5.483 3.015 1.282-2.031 3.11-3.047 5.484-3.047.756 0 1.471.115 2.143.345.672.21 1.25.555 1.733 1.037.484.46.862 1.068 1.135 1.822.294.754.441 1.665.441 2.733v10.46h-5.704v-7.947c0-.817-.063-1.487-.189-2.01-.105-.524-.273-.932-.504-1.226a1.584 1.584 0 0 0-.757-.596 2.796 2.796 0 0 0-.945-.157c-1.828 0-2.742 1.33-2.742 3.989v7.947h-5.704v-7.947c0-.817-.053-1.487-.158-2.01-.105-.545-.262-.974-.473-1.288a1.377 1.377 0 0 0-.756-.629 2.968 2.968 0 0 0-1.103-.188c-.357 0-.693.052-1.008.157-.316.105-.599.314-.851.628-.231.293-.421.712-.568 1.257-.126.523-.189 1.214-.189 2.073v7.947h-5.704V36.239Zm36.658 7.978c0 .545.095 1.047.284 1.508.21.44.473.827.788 1.162.336.335.725.597 1.166.786a3.8 3.8 0 0 0 1.449.282c.505 0 .977-.094 1.419-.282a3.27 3.27 0 0 0 1.166-.786c.336-.335.599-.722.788-1.162.21-.46.315-.953.315-1.476 0-.503-.105-.974-.315-1.414a3.59 3.59 0 0 0-.788-1.194 3.272 3.272 0 0 0-1.166-.785 3.577 3.577 0 0 0-1.419-.282c-.504 0-.987.094-1.449.282a3.69 3.69 0 0 0-1.166.785 4.539 4.539 0 0 0-.788 1.163c-.189.44-.284.91-.284 1.413Zm-6.019-.063c0-1.193.241-2.303.725-3.33a7.999 7.999 0 0 1 2.017-2.7c.861-.775 1.88-1.383 3.057-1.823 1.197-.44 2.5-.66 3.907-.66 1.387 0 2.669.22 3.845.66 1.198.42 2.227 1.016 3.089 1.791a7.753 7.753 0 0 1 2.048 2.733c.484 1.047.725 2.21.725 3.486 0 1.278-.252 2.45-.756 3.519a8.343 8.343 0 0 1-2.017 2.733c-.862.753-1.902 1.34-3.12 1.758-1.198.42-2.5.629-3.908.629-1.387 0-2.668-.21-3.845-.629-1.176-.418-2.195-1.015-3.057-1.79a8.461 8.461 0 0 1-1.985-2.764c-.484-1.09-.725-2.293-.725-3.613Zm22.697-7.915h5.704v1.979c1.555-1.487 3.299-2.23 5.232-2.23 2.395 0 4.223 1.005 5.483 3.015 1.282-2.031 3.11-3.047 5.484-3.047.756 0 1.471.115 2.143.345.672.21 1.25.555 1.733 1.037.483.46.862 1.068 1.135 1.822.294.754.441 1.665.441 2.733v10.46h-5.704v-7.947c0-.817-.063-1.487-.189-2.01-.105-.524-.274-.932-.505-1.226-.21-.293-.462-.492-.756-.596a2.796 2.796 0 0 0-.945-.157c-1.828 0-2.742 1.33-2.742 3.989v7.947h-5.705v-7.947c0-.817-.052-1.487-.157-2.01-.105-.545-.263-.974-.473-1.288a1.377 1.377 0 0 0-.756-.629 2.968 2.968 0 0 0-1.103-.188c-.357 0-.694.052-1.009.157-.315.105-.598.314-.851.628-.231.293-.42.712-.567 1.257-.126.523-.189 1.214-.189 2.073v7.947h-5.704V36.239Zm43.087 5.717c-.189-.796-.578-1.435-1.166-1.917-.589-.481-1.303-.722-2.143-.722-.883 0-1.608.23-2.175.691-.546.46-.893 1.11-1.04 1.948h6.524Zm-6.681 3.298c0 2.45 1.155 3.675 3.466 3.675 1.24 0 2.175-.503 2.805-1.508h5.515c-1.113 3.686-3.897 5.529-8.351 5.529-1.366 0-2.616-.2-3.751-.597-1.134-.419-2.111-1.005-2.931-1.76a7.874 7.874 0 0 1-1.859-2.7c-.441-1.048-.662-2.22-.662-3.519 0-1.34.21-2.544.631-3.612.42-1.089 1.019-2.01 1.796-2.764.777-.754 1.712-1.33 2.805-1.728 1.113-.419 2.363-.628 3.75-.628 1.366 0 2.595.21 3.687.628 1.093.398 2.017.984 2.774 1.76.756.774 1.334 1.727 1.733 2.858.399 1.11.599 2.366.599 3.77v.596H212.34Zm15.268-9.015h5.704v2.042c.777-.943 1.565-1.571 2.363-1.885.799-.335 1.734-.503 2.805-.503 1.135 0 2.101.189 2.9.566a5.63 5.63 0 0 1 2.08 1.539c.462.544.777 1.152.945 1.822.168.67.252 1.434.252 2.293v10.24h-5.704v-8.136c0-.795-.063-1.434-.189-1.916-.105-.502-.305-.9-.599-1.194a2.163 2.163 0 0 0-.851-.533 3.176 3.176 0 0 0-1.008-.157c-.967 0-1.713.293-2.238.879-.504.565-.756 1.382-.756 2.45v8.607h-5.704V36.239Zm27.294 4.743v11.371h-5.705V40.982h-1.891v-4.743h1.891V31.4h5.705v4.838h3.246v4.743h-3.246Z" fill="#222"/></svg>