<svg width="369" height="110" viewBox="0 0 369 110" fill="none" xmlns="http://www.w3.org/2000/svg">
<path d="M27.168 11.736V16.968H16.944V45H10.848V16.968H0.624V11.736H27.168ZM38.403 40.92C40.195 40.92 41.555 40.824 42.483 40.632V34.2C42.163 34.104 41.699 34.008 41.091 33.912C40.483 33.816 39.811 33.768 39.075 33.768C38.435 33.768 37.779 33.816 37.107 33.912C36.467 34.008 35.875 34.184 35.331 34.44C34.819 34.696 34.403 35.064 34.083 35.544C33.763 35.992 33.603 36.568 33.603 37.272C33.603 38.648 34.035 39.608 34.899 40.152C35.763 40.664 36.931 40.92 38.403 40.92ZM37.923 19.272C39.843 19.272 41.459 19.512 42.771 19.992C44.083 20.472 45.123 21.144 45.891 22.008C46.691 22.872 47.251 23.928 47.571 25.176C47.923 26.392 48.099 27.736 48.099 29.208V44.424C47.203 44.616 45.843 44.84 44.019 45.096C42.227 45.384 40.195 45.528 37.923 45.528C36.419 45.528 35.043 45.384 33.795 45.096C32.547 44.808 31.475 44.344 30.579 43.704C29.715 43.064 29.027 42.232 28.515 41.208C28.035 40.184 27.795 38.92 27.795 37.416C27.795 35.976 28.067 34.76 28.611 33.768C29.187 32.776 29.955 31.976 30.915 31.368C31.875 30.728 32.979 30.28 34.227 30.024C35.507 29.736 36.835 29.592 38.211 29.592C38.851 29.592 39.523 29.64 40.227 29.736C40.931 29.8 41.683 29.928 42.483 30.12V29.16C42.483 28.488 42.403 27.848 42.243 27.24C42.083 26.632 41.795 26.104 41.379 25.656C40.995 25.176 40.467 24.808 39.795 24.552C39.155 24.296 38.339 24.168 37.347 24.168C36.003 24.168 34.771 24.264 33.651 24.456C32.531 24.648 31.619 24.872 30.915 25.128L30.195 20.424C30.931 20.168 32.003 19.912 33.411 19.656C34.819 19.4 36.323 19.272 37.923 19.272ZM61.0196 29.688C61.7556 28.92 62.5396 28.104 63.3716 27.24C64.2036 26.344 65.0196 25.464 65.8196 24.6C66.6196 23.704 67.3716 22.856 68.0756 22.056C68.8116 21.224 69.4356 20.504 69.9476 19.896H76.8116C75.2116 21.688 73.5156 23.544 71.7236 25.464C69.9636 27.384 68.1876 29.256 66.3956 31.08C67.3556 31.88 68.3636 32.856 69.4196 34.008C70.4756 35.128 71.4996 36.328 72.4916 37.608C73.4836 38.888 74.4116 40.168 75.2756 41.448C76.1396 42.728 76.8596 43.912 77.4356 45H70.7156C70.1396 44.008 69.4676 42.968 68.6996 41.88C67.9636 40.792 67.1636 39.736 66.2996 38.712C65.4356 37.688 64.5556 36.728 63.6596 35.832C62.7636 34.904 61.8836 34.12 61.0196 33.48V45H55.2116V8.712L61.0196 7.752V29.688ZM79.1321 32.568C79.1321 30.36 79.4521 28.424 80.0921 26.76C80.7641 25.096 81.6441 23.72 82.7321 22.632C83.8201 21.512 85.0681 20.68 86.4761 20.136C87.8841 19.56 89.3241 19.272 90.7961 19.272C94.2521 19.272 96.9401 20.344 98.8601 22.488C100.812 24.632 101.788 27.832 101.788 32.088C101.788 32.408 101.772 32.776 101.74 33.192C101.74 33.576 101.724 33.928 101.692 34.248H85.1321C85.2921 36.264 85.9961 37.832 87.2441 38.952C88.5241 40.04 90.3641 40.584 92.7641 40.584C94.1721 40.584 95.4521 40.456 96.6041 40.2C97.7881 39.944 98.7161 39.672 99.3881 39.384L100.156 44.136C99.8361 44.296 99.3881 44.472 98.8121 44.664C98.2681 44.824 97.6281 44.968 96.8921 45.096C96.1881 45.256 95.4201 45.384 94.5881 45.48C93.7561 45.576 92.9081 45.624 92.0441 45.624C89.8361 45.624 87.9161 45.304 86.2841 44.664C84.6521 43.992 83.3081 43.08 82.2521 41.928C81.1961 40.744 80.4121 39.368 79.9001 37.8C79.3881 36.2 79.1321 34.456 79.1321 32.568ZM95.9801 29.976C95.9801 29.176 95.8681 28.424 95.6441 27.72C95.4201 26.984 95.0841 26.36 94.6361 25.848C94.2201 25.304 93.6921 24.888 93.0521 24.6C92.4441 24.28 91.7081 24.12 90.8441 24.12C89.9481 24.12 89.1641 24.296 88.4921 24.648C87.8201 24.968 87.2441 25.4 86.7641 25.944C86.3161 26.488 85.9641 27.112 85.7081 27.816C85.4521 28.52 85.2761 29.24 85.1801 29.976H95.9801ZM139.645 19.896C137.053 29.432 134.045 38.072 130.621 45.816C129.981 47.256 129.325 48.488 128.653 49.512C127.981 50.536 127.229 51.384 126.397 52.056C125.565 52.728 124.637 53.208 123.613 53.496C122.589 53.816 121.405 53.976 120.061 53.976C119.165 53.976 118.269 53.88 117.373 53.688C116.509 53.496 115.853 53.288 115.405 53.064L116.461 48.408C117.613 48.856 118.749 49.08 119.869 49.08C121.373 49.08 122.541 48.712 123.373 47.976C124.237 47.272 124.989 46.168 125.629 44.664C123.805 41.144 122.045 37.304 120.349 33.144C118.685 28.984 117.197 24.568 115.885 19.896H122.077C122.397 21.24 122.781 22.696 123.229 24.264C123.709 25.832 124.221 27.432 124.765 29.064C125.309 30.664 125.885 32.264 126.493 33.864C127.101 35.464 127.709 36.952 128.317 38.328C129.341 35.48 130.301 32.456 131.197 29.256C132.093 26.024 132.909 22.904 133.645 19.896H139.645ZM166.744 32.424C166.744 34.408 166.456 36.216 165.88 37.848C165.304 39.48 164.488 40.872 163.432 42.024C162.376 43.176 161.096 44.072 159.592 44.712C158.12 45.352 156.488 45.672 154.696 45.672C152.904 45.672 151.272 45.352 149.8 44.712C148.328 44.072 147.064 43.176 146.008 42.024C144.952 40.872 144.12 39.48 143.512 37.848C142.936 36.216 142.648 34.408 142.648 32.424C142.648 30.44 142.936 28.648 143.512 27.048C144.12 25.416 144.952 24.024 146.008 22.872C147.096 21.72 148.376 20.84 149.848 20.232C151.32 19.592 152.936 19.272 154.696 19.272C156.456 19.272 158.072 19.592 159.544 20.232C161.048 20.84 162.328 21.72 163.384 22.872C164.44 24.024 165.256 25.416 165.832 27.048C166.44 28.648 166.744 30.44 166.744 32.424ZM160.792 32.424C160.792 29.928 160.248 27.96 159.16 26.52C158.104 25.048 156.616 24.312 154.696 24.312C152.776 24.312 151.272 25.048 150.184 26.52C149.128 27.96 148.6 29.928 148.6 32.424C148.6 34.952 149.128 36.952 150.184 38.424C151.272 39.896 152.776 40.632 154.696 40.632C156.616 40.632 158.104 39.896 159.16 38.424C160.248 36.952 160.792 34.952 160.792 32.424ZM193.319 44.232C192.199 44.52 190.743 44.808 188.951 45.096C187.159 45.416 185.191 45.576 183.047 45.576C181.031 45.576 179.335 45.288 177.959 44.712C176.615 44.136 175.527 43.336 174.695 42.312C173.895 41.288 173.319 40.072 172.967 38.664C172.615 37.224 172.439 35.656 172.439 33.96V19.896H178.247V33.048C178.247 35.736 178.631 37.656 179.399 38.808C180.199 39.96 181.575 40.536 183.527 40.536C184.231 40.536 184.967 40.504 185.735 40.44C186.535 40.376 187.127 40.296 187.511 40.2V19.896H193.319V44.232ZM215.016 25.128C214.536 24.968 213.864 24.808 213 24.648C212.168 24.456 211.192 24.36 210.072 24.36C209.432 24.36 208.744 24.424 208.008 24.552C207.304 24.68 206.808 24.792 206.52 24.888V45H200.712V21.096C201.832 20.68 203.224 20.296 204.888 19.944C206.584 19.56 208.456 19.368 210.504 19.368C210.888 19.368 211.336 19.4 211.848 19.464C212.36 19.496 212.872 19.56 213.384 19.656C213.896 19.72 214.392 19.816 214.872 19.944C215.352 20.04 215.736 20.136 216.024 20.232L215.016 25.128ZM247.93 32.568C247.93 29.976 247.338 27.96 246.154 26.52C245.002 25.08 243.13 24.36 240.538 24.36C239.994 24.36 239.418 24.392 238.81 24.456C238.234 24.488 237.658 24.584 237.082 24.744V39.096C237.594 39.448 238.266 39.784 239.098 40.104C239.962 40.392 240.874 40.536 241.834 40.536C243.946 40.536 245.482 39.816 246.442 38.376C247.434 36.936 247.93 35 247.93 32.568ZM253.882 32.472C253.882 34.392 253.626 36.152 253.114 37.752C252.634 39.352 251.93 40.728 251.002 41.88C250.074 43.032 248.906 43.928 247.498 44.568C246.122 45.208 244.554 45.528 242.794 45.528C241.61 45.528 240.522 45.384 239.53 45.096C238.538 44.808 237.722 44.488 237.082 44.136V53.88H231.274V20.712C232.458 20.392 233.914 20.088 235.642 19.8C237.37 19.512 239.194 19.368 241.114 19.368C243.098 19.368 244.874 19.672 246.442 20.28C248.01 20.888 249.338 21.768 250.426 22.92C251.546 24.04 252.394 25.416 252.97 27.048C253.578 28.648 253.882 30.456 253.882 32.472ZM282.572 32.424C282.572 34.408 282.284 36.216 281.708 37.848C281.132 39.48 280.316 40.872 279.26 42.024C278.204 43.176 276.924 44.072 275.42 44.712C273.948 45.352 272.316 45.672 270.524 45.672C268.732 45.672 267.1 45.352 265.628 44.712C264.156 44.072 262.892 43.176 261.836 42.024C260.78 40.872 259.948 39.48 259.34 37.848C258.764 36.216 258.476 34.408 258.476 32.424C258.476 30.44 258.764 28.648 259.34 27.048C259.948 25.416 260.78 24.024 261.836 22.872C262.924 21.72 264.204 20.84 265.676 20.232C267.148 19.592 268.764 19.272 270.524 19.272C272.284 19.272 273.9 19.592 275.372 20.232C276.876 20.84 278.156 21.72 279.212 22.872C280.268 24.024 281.084 25.416 281.66 27.048C282.268 28.648 282.572 30.44 282.572 32.424ZM276.62 32.424C276.62 29.928 276.076 27.96 274.988 26.52C273.932 25.048 272.444 24.312 270.524 24.312C268.604 24.312 267.1 25.048 266.012 26.52C264.956 27.96 264.428 29.928 264.428 32.424C264.428 34.952 264.956 36.952 266.012 38.424C267.1 39.896 268.604 40.632 270.524 40.632C272.444 40.632 273.932 39.896 274.988 38.424C276.076 36.952 276.62 34.952 276.62 32.424ZM303.016 29.208C302.28 32.024 301.48 34.776 300.616 37.464C299.784 40.12 298.952 42.632 298.12 45H293.368C292.728 43.528 292.056 41.848 291.352 39.96C290.648 38.072 289.944 36.056 289.24 33.912C288.536 31.768 287.832 29.512 287.128 27.144C286.424 24.776 285.736 22.36 285.064 19.896H291.208C291.496 21.24 291.832 22.696 292.216 24.264C292.6 25.8 293 27.384 293.416 29.016C293.832 30.616 294.264 32.184 294.712 33.72C295.16 35.256 295.608 36.664 296.056 37.944C296.536 36.472 297 34.952 297.448 33.384C297.928 31.816 298.376 30.248 298.792 28.68C299.208 27.112 299.592 25.592 299.944 24.12C300.328 22.616 300.664 21.208 300.952 19.896H305.416C305.704 21.208 306.024 22.616 306.376 24.12C306.728 25.592 307.096 27.112 307.48 28.68C307.896 30.248 308.328 31.816 308.776 33.384C309.256 34.952 309.736 36.472 310.216 37.944C310.632 36.664 311.064 35.256 311.512 33.72C311.96 32.184 312.392 30.616 312.808 29.016C313.256 27.384 313.672 25.8 314.056 24.264C314.44 22.696 314.776 21.24 315.064 19.896H321.064C320.392 22.36 319.704 24.776 319 27.144C318.296 29.512 317.592 31.768 316.888 33.912C316.184 36.056 315.48 38.072 314.776 39.96C314.072 41.848 313.384 43.528 312.712 45H308.008C307.176 42.632 306.312 40.12 305.416 37.464C304.552 34.776 303.752 32.024 303.016 29.208ZM324.101 32.568C324.101 30.36 324.421 28.424 325.061 26.76C325.733 25.096 326.613 23.72 327.701 22.632C328.789 21.512 330.037 20.68 331.445 20.136C332.853 19.56 334.293 19.272 335.765 19.272C339.221 19.272 341.909 20.344 343.829 22.488C345.781 24.632 346.757 27.832 346.757 32.088C346.757 32.408 346.741 32.776 346.709 33.192C346.709 33.576 346.693 33.928 346.661 34.248H330.101C330.261 36.264 330.965 37.832 332.213 38.952C333.493 40.04 335.333 40.584 337.733 40.584C339.141 40.584 340.421 40.456 341.573 40.2C342.757 39.944 343.685 39.672 344.357 39.384L345.125 44.136C344.805 44.296 344.357 44.472 343.781 44.664C343.237 44.824 342.597 44.968 341.861 45.096C341.157 45.256 340.389 45.384 339.557 45.48C338.725 45.576 337.877 45.624 337.013 45.624C334.805 45.624 332.885 45.304 331.253 44.664C329.621 43.992 328.277 43.08 327.221 41.928C326.165 40.744 325.381 39.368 324.869 37.8C324.357 36.2 324.101 34.456 324.101 32.568ZM340.949 29.976C340.949 29.176 340.837 28.424 340.613 27.72C340.389 26.984 340.053 26.36 339.605 25.848C339.189 25.304 338.661 24.888 338.021 24.6C337.413 24.28 336.677 24.12 335.813 24.12C334.917 24.12 334.133 24.296 333.461 24.648C332.789 24.968 332.213 25.4 331.733 25.944C331.285 26.488 330.933 27.112 330.677 27.816C330.421 28.52 330.245 29.24 330.149 29.976H340.949ZM367.219 25.128C366.739 24.968 366.067 24.808 365.203 24.648C364.371 24.456 363.395 24.36 362.275 24.36C361.635 24.36 360.947 24.424 360.211 24.552C359.507 24.68 359.011 24.792 358.723 24.888V45H352.915V21.096C354.035 20.68 355.427 20.296 357.091 19.944C358.787 19.56 360.659 19.368 362.707 19.368C363.091 19.368 363.539 19.4 364.051 19.464C364.563 19.496 365.075 19.56 365.587 19.656C366.099 19.72 366.595 19.816 367.075 19.944C367.555 20.04 367.939 20.136 368.227 20.232L367.219 25.128ZM24.288 99.232C23.168 99.52 21.712 99.808 19.92 100.096C18.128 100.416 16.16 100.576 14.016 100.576C12 100.576 10.304 100.288 8.928 99.712C7.584 99.136 6.496 98.336 5.664 97.312C4.864 96.288 4.288 95.072 3.936 93.664C3.584 92.224 3.408 90.656 3.408 88.96V74.896H9.216V88.048C9.216 90.736 9.6 92.656 10.368 93.808C11.168 94.96 12.544 95.536 14.496 95.536C15.2 95.536 15.936 95.504 16.704 95.44C17.504 95.376 18.096 95.296 18.48 95.2V74.896H24.288V99.232ZM31.6804 75.712C32.8004 75.392 34.2564 75.088 36.0484 74.8C37.8404 74.512 39.8244 74.368 42.0004 74.368C44.0484 74.368 45.7604 74.656 47.1364 75.232C48.5124 75.776 49.6004 76.56 50.4004 77.584C51.2324 78.576 51.8084 79.792 52.1284 81.232C52.4804 82.64 52.6564 84.192 52.6564 85.888V100H46.8484V86.8C46.8484 85.456 46.7524 84.32 46.5604 83.392C46.4004 82.432 46.1124 81.664 45.6964 81.088C45.3124 80.48 44.7684 80.048 44.0644 79.792C43.3924 79.504 42.5604 79.36 41.5684 79.36C40.8324 79.36 40.0644 79.408 39.2644 79.504C38.4644 79.6 37.8724 79.68 37.4884 79.744V100H31.6804V75.712ZM64.3185 87.376C64.3185 89.936 64.9265 91.952 66.1425 93.424C67.3585 94.864 69.0385 95.584 71.1825 95.584C72.1105 95.584 72.8945 95.552 73.5345 95.488C74.2065 95.392 74.7505 95.296 75.1665 95.2V80.8C74.6545 80.448 73.9665 80.128 73.1025 79.84C72.2705 79.52 71.3745 79.36 70.4145 79.36C68.3025 79.36 66.7505 80.08 65.7585 81.52C64.7985 82.96 64.3185 84.912 64.3185 87.376ZM80.9745 99.232C79.8225 99.584 78.3665 99.904 76.6065 100.192C74.8785 100.48 73.0545 100.624 71.1345 100.624C69.1505 100.624 67.3745 100.32 65.8065 99.712C64.2385 99.104 62.8945 98.24 61.7745 97.12C60.6865 95.968 59.8385 94.592 59.2305 92.992C58.6545 91.36 58.3665 89.536 58.3665 87.52C58.3665 85.536 58.6065 83.744 59.0865 82.144C59.5985 80.512 60.3345 79.12 61.2945 77.968C62.2545 76.816 63.4225 75.936 64.7985 75.328C66.1745 74.688 67.7585 74.368 69.5505 74.368C70.7665 74.368 71.8385 74.512 72.7665 74.8C73.6945 75.088 74.4945 75.408 75.1665 75.76V63.712L80.9745 62.752V99.232ZM86.9603 87.568C86.9603 85.36 87.2803 83.424 87.9203 81.76C88.5923 80.096 89.4723 78.72 90.5603 77.632C91.6483 76.512 92.8963 75.68 94.3043 75.136C95.7123 74.56 97.1523 74.272 98.6243 74.272C102.08 74.272 104.768 75.344 106.688 77.488C108.64 79.632 109.616 82.832 109.616 87.088C109.616 87.408 109.6 87.776 109.568 88.192C109.568 88.576 109.552 88.928 109.52 89.248H92.9603C93.1203 91.264 93.8243 92.832 95.0723 93.952C96.3523 95.04 98.1923 95.584 100.592 95.584C102 95.584 103.28 95.456 104.432 95.2C105.616 94.944 106.544 94.672 107.216 94.384L107.984 99.136C107.664 99.296 107.216 99.472 106.64 99.664C106.096 99.824 105.456 99.968 104.72 100.096C104.016 100.256 103.248 100.384 102.416 100.48C101.584 100.576 100.736 100.624 99.8723 100.624C97.6643 100.624 95.7443 100.304 94.1123 99.664C92.4803 98.992 91.1363 98.08 90.0803 96.928C89.0243 95.744 88.2403 94.368 87.7283 92.8C87.2163 91.2 86.9603 89.456 86.9603 87.568ZM103.808 84.976C103.808 84.176 103.696 83.424 103.472 82.72C103.248 81.984 102.912 81.36 102.464 80.848C102.048 80.304 101.52 79.888 100.88 79.6C100.272 79.28 99.5363 79.12 98.6723 79.12C97.7763 79.12 96.9923 79.296 96.3203 79.648C95.6483 79.968 95.0723 80.4 94.5923 80.944C94.1443 81.488 93.7923 82.112 93.5363 82.816C93.2803 83.52 93.1043 84.24 93.0083 84.976H103.808ZM130.078 80.128C129.598 79.968 128.926 79.808 128.062 79.648C127.23 79.456 126.254 79.36 125.134 79.36C124.494 79.36 123.806 79.424 123.07 79.552C122.366 79.68 121.87 79.792 121.582 79.888V100H115.774V76.096C116.894 75.68 118.286 75.296 119.95 74.944C121.646 74.56 123.518 74.368 125.566 74.368C125.95 74.368 126.398 74.4 126.91 74.464C127.422 74.496 127.934 74.56 128.446 74.656C128.958 74.72 129.454 74.816 129.934 74.944C130.414 75.04 130.798 75.136 131.086 75.232L130.078 80.128ZM144.945 87.472C144.945 85.616 145.233 83.888 145.809 82.288C146.385 80.656 147.201 79.248 148.257 78.064C149.345 76.88 150.657 75.952 152.193 75.28C153.729 74.608 155.457 74.272 157.377 74.272C159.745 74.272 161.985 74.704 164.097 75.568L162.849 80.32C162.177 80.032 161.409 79.792 160.545 79.6C159.713 79.408 158.817 79.312 157.857 79.312C155.585 79.312 153.857 80.032 152.673 81.472C151.489 82.88 150.897 84.88 150.897 87.472C150.897 89.968 151.457 91.952 152.577 93.424C153.697 94.864 155.585 95.584 158.241 95.584C159.233 95.584 160.209 95.488 161.169 95.296C162.129 95.104 162.961 94.864 163.665 94.576L164.481 99.376C163.841 99.696 162.865 99.984 161.553 100.24C160.273 100.496 158.945 100.624 157.569 100.624C155.425 100.624 153.553 100.304 151.953 99.664C150.385 98.992 149.073 98.08 148.017 96.928C146.993 95.744 146.225 94.352 145.713 92.752C145.201 91.12 144.945 89.36 144.945 87.472ZM191.166 87.424C191.166 89.408 190.878 91.216 190.302 92.848C189.726 94.48 188.91 95.872 187.854 97.024C186.798 98.176 185.518 99.072 184.014 99.712C182.542 100.352 180.91 100.672 179.118 100.672C177.326 100.672 175.694 100.352 174.222 99.712C172.75 99.072 171.486 98.176 170.43 97.024C169.374 95.872 168.542 94.48 167.934 92.848C167.358 91.216 167.07 89.408 167.07 87.424C167.07 85.44 167.358 83.648 167.934 82.048C168.542 80.416 169.374 79.024 170.43 77.872C171.518 76.72 172.798 75.84 174.27 75.232C175.742 74.592 177.358 74.272 179.118 74.272C180.878 74.272 182.494 74.592 183.966 75.232C185.47 75.84 186.75 76.72 187.806 77.872C188.862 79.024 189.678 80.416 190.254 82.048C190.862 83.648 191.166 85.44 191.166 87.424ZM185.214 87.424C185.214 84.928 184.67 82.96 183.582 81.52C182.526 80.048 181.038 79.312 179.118 79.312C177.198 79.312 175.694 80.048 174.606 81.52C173.55 82.96 173.022 84.928 173.022 87.424C173.022 89.952 173.55 91.952 174.606 93.424C175.694 94.896 177.198 95.632 179.118 95.632C181.038 95.632 182.526 94.896 183.582 93.424C184.67 91.952 185.214 89.952 185.214 87.424ZM197.149 75.712C198.269 75.392 199.725 75.088 201.517 74.8C203.309 74.512 205.293 74.368 207.469 74.368C209.517 74.368 211.229 74.656 212.605 75.232C213.981 75.776 215.069 76.56 215.869 77.584C216.701 78.576 217.277 79.792 217.597 81.232C217.949 82.64 218.125 84.192 218.125 85.888V100H212.317V86.8C212.317 85.456 212.221 84.32 212.029 83.392C211.869 82.432 211.581 81.664 211.165 81.088C210.781 80.48 210.237 80.048 209.533 79.792C208.861 79.504 208.029 79.36 207.037 79.36C206.301 79.36 205.533 79.408 204.733 79.504C203.933 79.6 203.341 79.68 202.957 79.744V100H197.149V75.712ZM224.939 68.272L230.747 67.312V74.896H239.675V79.744H230.747V89.968C230.747 91.984 231.067 93.424 231.707 94.288C232.347 95.152 233.435 95.584 234.971 95.584C236.027 95.584 236.955 95.472 237.755 95.248C238.587 95.024 239.243 94.816 239.723 94.624L240.683 99.232C240.011 99.52 239.131 99.808 238.043 100.096C236.955 100.416 235.675 100.576 234.203 100.576C232.411 100.576 230.907 100.336 229.691 99.856C228.507 99.376 227.563 98.688 226.859 97.792C226.155 96.864 225.659 95.76 225.371 94.48C225.083 93.168 224.939 91.68 224.939 90.016V68.272ZM259.594 80.128C259.114 79.968 258.442 79.808 257.578 79.648C256.746 79.456 255.77 79.36 254.65 79.36C254.01 79.36 253.322 79.424 252.586 79.552C251.882 79.68 251.386 79.792 251.098 79.888V100H245.29V76.096C246.41 75.68 247.802 75.296 249.466 74.944C251.162 74.56 253.034 74.368 255.082 74.368C255.466 74.368 255.914 74.4 256.426 74.464C256.938 74.496 257.45 74.56 257.962 74.656C258.474 74.72 258.97 74.816 259.45 74.944C259.93 75.04 260.314 75.136 260.602 75.232L259.594 80.128ZM287.353 87.424C287.353 89.408 287.065 91.216 286.489 92.848C285.913 94.48 285.097 95.872 284.041 97.024C282.985 98.176 281.705 99.072 280.201 99.712C278.729 100.352 277.097 100.672 275.305 100.672C273.513 100.672 271.881 100.352 270.409 99.712C268.937 99.072 267.673 98.176 266.617 97.024C265.561 95.872 264.729 94.48 264.121 92.848C263.545 91.216 263.257 89.408 263.257 87.424C263.257 85.44 263.545 83.648 264.121 82.048C264.729 80.416 265.561 79.024 266.617 77.872C267.705 76.72 268.985 75.84 270.457 75.232C271.929 74.592 273.545 74.272 275.305 74.272C277.065 74.272 278.681 74.592 280.153 75.232C281.657 75.84 282.937 76.72 283.993 77.872C285.049 79.024 285.865 80.416 286.441 82.048C287.049 83.648 287.353 85.44 287.353 87.424ZM281.401 87.424C281.401 84.928 280.857 82.96 279.769 81.52C278.713 80.048 277.225 79.312 275.305 79.312C273.385 79.312 271.881 80.048 270.793 81.52C269.737 82.96 269.209 84.928 269.209 87.424C269.209 89.952 269.737 91.952 270.793 93.424C271.881 94.896 273.385 95.632 275.305 95.632C277.225 95.632 278.713 94.896 279.769 93.424C280.857 91.952 281.401 89.952 281.401 87.424ZM302.073 100.48C300.345 100.448 298.905 100.256 297.753 99.904C296.633 99.552 295.737 99.056 295.065 98.416C294.393 97.744 293.913 96.928 293.625 95.968C293.369 94.976 293.241 93.856 293.241 92.608V63.712L299.049 62.752V91.504C299.049 92.208 299.097 92.8 299.193 93.28C299.321 93.76 299.529 94.176 299.817 94.528C300.105 94.848 300.489 95.104 300.969 95.296C301.481 95.456 302.121 95.584 302.889 95.68L302.073 100.48ZM316.323 100.48C314.595 100.448 313.155 100.256 312.003 99.904C310.883 99.552 309.987 99.056 309.315 98.416C308.643 97.744 308.163 96.928 307.875 95.968C307.619 94.976 307.491 93.856 307.491 92.608V63.712L313.299 62.752V91.504C313.299 92.208 313.347 92.8 313.443 93.28C313.571 93.76 313.779 94.176 314.067 94.528C314.355 94.848 314.739 95.104 315.219 95.296C315.731 95.456 316.371 95.584 317.139 95.68L316.323 100.48Z" fill="#263238"/>
</svg>
